<?xml version="1.0" encoding="iso-8859-1"?>
<!-- Generator: Adobe Illustrator 19.0.0, SVG Export Plug-In . SVG Version: 6.00 Build 0)  -->
<svg version="1.1" id="Layer_1" xmlns="http://www.w3.org/2000/svg" xmlns:xlink="http://www.w3.org/1999/xlink" x="0px" y="0px"
	 viewBox="0 0 512.001 512.001" style="enable-background:new 0 0 512.001 512.001;" xml:space="preserve">
<g>
	<g>
		<path d="M153.626,200.199c-16.97,0-30.778,13.807-30.778,30.777s13.807,30.778,30.778,30.778
			c16.969,0,30.777-13.807,30.777-30.778C184.403,214.005,170.596,200.199,153.626,200.199z M153.626,245.698
			c-8.119,0-14.723-6.604-14.723-14.723c0-8.118,6.604-14.722,14.723-14.722c8.118,0,14.722,6.604,14.722,14.722
			C168.348,239.094,161.743,245.698,153.626,245.698z"/>
	</g>
</g>
<g>
	<g>
		<path d="M146.738,290.349l-6.761,4.326l-6.807,4.255c1.025,1.641,26.089,40.173,111.457,40.173v-16.055
			C169.039,323.048,146.952,290.676,146.738,290.349z"/>
	</g>
</g>
<g>
	<g>
		<path d="M503.972,122.849c-27.459,0-52.186,9.464-73.494,28.128c-11.201,9.812-21.312,22.04-30.193,36.446
			c-11.599-42.242-56.764-103.38-62.789-111.412l-5.007-6.676l-72.729,59.079c-15.986-3.831-31.816-5.662-47.113-5.382
			c-9.707,0.154-19.367,1.154-28.71,2.973l3.067,15.76c8.419-1.639,17.133-2.541,25.917-2.68
			c15.109-0.278,30.862,1.691,46.779,5.837c1.113,0.291,3.905,1.067,3.905,1.067c16.203,4.58,33.028,11.424,50.06,20.372
			c24.777,13.134,50.603,30.94,76.764,52.923l8.05,6.766c0,0,5.424-11.764,6.06-13.036c9.068-18.619,22.439-39.193,41.356-53.935
			v94.645h16.055V148.832c10.056-5.109,21.338-8.574,33.995-9.605V368.21c-27.289-2.296-62.516-17.204-89.442-69.939l-7.649-16.179
			l-8.075,6.81c-10.27,8.663-20.401,16.624-30.121,23.667c-26.555,19.306-52.752,33.971-77.836,43.576
			c-9.01,3.411-17.862,6.156-26.356,8.17c-47.428,11.54-90.727,3.599-128.685-23.602c-30.78-22.059-51.234-51.713-62.972-72.706
			l-2.297-4.11H26.228c-5.609,0-10.173-4.563-10.173-10.172c0-5.609,4.564-10.173,10.173-10.173h36.806l2.304-4.077
			c14.797-26.174,47.554-72.924,100.681-91.942l-5.412-15.117c-55.312,19.802-90.003,66.412-106.892,95.081H26.228
			C11.765,227.498,0,239.263,0,253.726c0,14.462,11.765,26.227,26.228,26.227h26.915c12.846,22.066,34.082,51.446,65.288,73.811
			c29.533,21.164,61.932,31.787,96.73,31.785c13.399,0,27.162-1.595,41.245-4.75l76.083,61.868l5.007-6.675
			c6.179-8.239,53.535-72.34,63.62-114.622c32.28,51.787,73.099,63.233,102.857,63.233h8.028V122.849H503.972z M321.158,152.161
			c-14.37-7.547-28.629-13.688-42.571-18.345l51.005-41.442c17.832,24.754,49.656,73.422,56.195,102.463
			C363.859,177.63,342.185,163.307,321.158,152.161z M329.591,419.627l-54.103-43.946c4.303-1.362,8.657-2.869,13.049-4.532
			c26.427-10.119,53.87-25.458,81.554-45.586c5.381-3.899,10.885-8.08,16.462-12.485
			C382.368,341.422,348.288,393.671,329.591,419.627z"/>
	</g>
</g>
<g>
	<g>
		<rect x="226.423" y="241.152" width="31.849" height="16.055"/>
	</g>
</g>
<g>
	<g>
		<rect x="253.728" y="213.847" width="31.851" height="16.055"/>
	</g>
</g>
<g>
	<g>
		<rect x="326.522" y="263.897" width="31.849" height="16.055"/>
	</g>
</g>
<g>
	<g>
		<rect x="440.269" y="272.995" width="27.299" height="16.055"/>
	</g>
</g>
<g>
</g>
<g>
</g>
<g>
</g>
<g>
</g>
<g>
</g>
<g>
</g>
<g>
</g>
<g>
</g>
<g>
</g>
<g>
</g>
<g>
</g>
<g>
</g>
<g>
</g>
<g>
</g>
<g>
</g>
</svg>
